<svg width="7" height="11" viewBox="0 0 7 11" fill="none" xmlns="http://www.w3.org/2000/svg">
<path d="M5.33102 5.78842C5.33102 5.9424 5.26647 6.08933 5.15307 6.19349L1.03536 9.97552C1.02293 9.98693 1.01734 9.99649 1.01467 10.0025C1.01188 10.0089 1.01094 10.0144 1.01094 10.0192C1.01094 10.024 1.01188 10.0295 1.01467 10.0359C1.01734 10.0419 1.02293 10.0515 1.03536 10.0629L5.33102 5.78842ZM5.33102 5.78842C5.33102 5.63444 5.26647 5.48752 5.15307 5.38336M5.33102 5.78842L5.15307 5.38336M5.15307 5.38336L1.03536 1.60133C1.02293 1.58992 1.01734 1.58036 1.01467 1.57432C1.01188 1.568 1.01094 1.56246 1.01094 1.55765C1.01094 1.55285 1.01188 1.54731 1.01467 1.54099C1.01734 1.53495 1.02293 1.52539 1.03536 1.51398L0.663309 1.10891L5.15307 5.38336Z" fill="#100F0F" stroke="#100F0F" stroke-width="1.1" stroke-linecap="round" stroke-linejoin="round"/>
</svg>
