
<svg width="26" height="26" fill="none" xmlns="http://www.w3.org/2000/svg"><path d="M13 0c7.18 0 13 5.82 13 13s-5.82 13-13 13S0 20.18 0 13 5.82 0 13 0Z" fill="#FEFEFE"/><path d="M8.643 8.408V.748A13.043 13.043 0 0 0 2.5 5.335l6.143 3.073Zm0 9.184v7.66a13.045 13.045 0 0 1-6.142-4.587l6.142-3.073Zm8.684 0v7.67a13.038 13.038 0 0 0 6.164-4.586l-6.164-3.084Zm0-9.184V.738a13.034 13.034 0 0 1 6.164 4.587l-6.164 3.083Z" fill="#012169"/><path d="M24.551 17.335h-2.89l2.965 1.485c.192-.385.367-.781.522-1.187l-.597-.298Zm-.561-11.28L18.799 8.66h2.89l2.94-1.472a12.91 12.91 0 0 0-.639-1.131ZM10.38 15.6v10.137a13.101 13.101 0 0 0 5.21.006V15.599H25.74a13.086 13.086 0 0 0-.002-5.21H15.59V.258a13.06 13.06 0 0 0-5.21.005v10.124H.264a13.082 13.082 0 0 0-.002 5.21h10.12ZM1.414 8.665h2.89l-2.937-1.47c-.192.385-.367.782-.521 1.187l.568.283Zm5.759 8.676h-2.89l-2.918 1.46c.195.39.41.77.642 1.138l5.192-2.598h-.026Z" fill="#C8102E"/></svg>