<svg width="26" height="26" viewBox="0 0 26 26" fill="none" xmlns="http://www.w3.org/2000/svg">
<g clip-path="url(#clip0_531_1641)">
<path d="M0 26H26V0H0V26Z" fill="white"/>
<path d="M10.4102 26H15.5898V0H10.4102V26Z" fill="#FF0000"/>
<path d="M0 15.5898H26V10.4102H0V15.5898Z" fill="#FF0000"/>
<path fill-rule="evenodd" clip-rule="evenodd" d="M5.79414 5.79414C5.85 6.7082 6.0125 7.49023 6.0125 7.49023C6.0125 7.49023 5.47422 7.43945 5.20508 7.43945C4.93594 7.43945 4.39766 7.49023 4.39766 7.49023C4.39766 7.49023 4.56016 6.71328 4.61602 5.79414C3.70195 5.85 2.91992 6.0125 2.91992 6.0125C2.91992 6.0125 2.9707 5.60625 2.9707 5.20508C2.9707 4.80391 2.91992 4.39766 2.91992 4.39766C2.91992 4.39766 3.69688 4.56016 4.61602 4.61601C4.56016 3.70195 4.39766 2.91992 4.39766 2.91992C4.39766 2.91992 4.80391 2.9707 5.20508 2.9707C5.61133 2.9707 6.0125 2.91992 6.0125 2.91992C6.0125 2.91992 5.85 3.69687 5.79414 4.61601C6.7082 4.56016 7.49023 4.39766 7.49023 4.39766C7.49023 4.39766 7.43945 4.93594 7.43945 5.20508C7.43945 5.47422 7.49023 6.0125 7.49023 6.0125C7.49023 6.0125 6.71328 5.85 5.79414 5.79414ZM21.384 21.384C21.4398 22.298 21.6023 23.0801 21.6023 23.0801C21.6023 23.0801 21.0641 23.0293 20.7949 23.0293C20.5258 23.0293 19.9875 23.0801 19.9875 23.0801C19.9875 23.0801 20.15 22.298 20.2059 21.384C19.2918 21.4398 18.5098 21.6023 18.5098 21.6023C18.5098 21.6023 18.5605 21.1961 18.5605 20.7949C18.5605 20.3887 18.5098 19.9875 18.5098 19.9875C18.5098 19.9875 19.2867 20.15 20.2059 20.2059C20.15 19.2918 19.9875 18.5098 19.9875 18.5098C19.9875 18.5098 20.3937 18.5605 20.7949 18.5605C21.1961 18.5605 21.6023 18.5098 21.6023 18.5098C21.6023 18.5098 21.4398 19.2867 21.384 20.2059C22.298 20.15 23.0801 19.9875 23.0801 19.9875C23.0801 19.9875 23.0293 20.5258 23.0293 20.7949C23.0293 21.059 23.0801 21.6023 23.0801 21.6023C23.0801 21.6023 22.298 21.4398 21.384 21.384ZM5.79414 21.384C5.85 22.298 6.0125 23.0801 6.0125 23.0801C6.0125 23.0801 5.47422 23.0293 5.20508 23.0293C4.93594 23.0293 4.39766 23.0801 4.39766 23.0801C4.39766 23.0801 4.56016 22.298 4.61602 21.384C3.70195 21.4398 2.91992 21.6023 2.91992 21.6023C2.91992 21.6023 2.9707 21.1961 2.9707 20.7949C2.9707 20.3887 2.91992 19.9875 2.91992 19.9875C2.91992 19.9875 3.69688 20.15 4.61602 20.2059C4.56016 19.2918 4.39766 18.5098 4.39766 18.5098C4.39766 18.5098 4.80391 18.5605 5.20508 18.5605C5.61133 18.5605 6.0125 18.5098 6.0125 18.5098C6.0125 18.5098 5.85 19.2867 5.79414 20.2059C6.7082 20.15 7.49023 19.9875 7.49023 19.9875C7.49023 19.9875 7.43945 20.5258 7.43945 20.7949C7.43945 21.059 7.49023 21.6023 7.49023 21.6023C7.49023 21.6023 6.71328 21.4398 5.79414 21.384ZM21.384 5.79414C21.4398 6.7082 21.6023 7.49023 21.6023 7.49023C21.6023 7.49023 21.0641 7.43945 20.7949 7.43945C20.5258 7.43945 19.9875 7.49023 19.9875 7.49023C19.9875 7.49023 20.15 6.71328 20.2059 5.79414C19.2918 5.85 18.5098 6.0125 18.5098 6.0125C18.5098 6.0125 18.5605 5.60625 18.5605 5.20508C18.5605 4.80391 18.5098 4.39766 18.5098 4.39766C18.5098 4.39766 19.2867 4.56016 20.2059 4.61601C20.15 3.70195 19.9875 2.91992 19.9875 2.91992C19.9875 2.91992 20.3937 2.9707 20.7949 2.9707C21.1961 2.9707 21.6023 2.91992 21.6023 2.91992C21.6023 2.91992 21.4398 3.69687 21.384 4.61601C22.298 4.56016 23.0801 4.39766 23.0801 4.39766C23.0801 4.39766 23.0293 4.93594 23.0293 5.20508C23.0293 5.47422 23.0801 6.0125 23.0801 6.0125C23.0801 6.0125 22.298 5.85 21.384 5.79414Z" fill="#FF0000"/>
</g>
<defs>
<clipPath id="clip0_531_1641">
<rect width="26" height="26" rx="13" transform="matrix(1 0 0 -1 0 26)" fill="white"/>
</clipPath>
</defs>
</svg>
