<svg width="44" height="44" viewBox="0 0 44 44" fill="none" xmlns="http://www.w3.org/2000/svg">
<circle cx="22" cy="22" r="22" fill="#EE2E24"/>
<path d="M21.9992 14.7781C24.3488 14.7781 24.6271 14.7868 25.5553 14.8289C26.1133 14.8357 26.6661 14.9377 27.1895 15.1305C27.5691 15.2762 27.9139 15.4993 28.2015 15.7856C28.4892 16.0719 28.7135 16.415 28.8599 16.7928C29.0535 17.3137 29.156 17.8639 29.1628 18.4193C29.2047 19.343 29.214 19.62 29.214 21.9583C29.214 24.2967 29.2052 24.5736 29.1628 25.4974C29.156 26.0528 29.0535 26.6029 28.8599 27.1239C28.7135 27.5017 28.4892 27.8447 28.2015 28.131C27.9139 28.4173 27.5691 28.6405 27.1895 28.7862C26.6661 28.979 26.1133 29.0809 25.5553 29.0877C24.6275 29.1294 24.3492 29.1386 21.9992 29.1386C19.6492 29.1386 19.371 29.1299 18.4432 29.0877C17.8851 29.0809 17.3323 28.979 16.8089 28.7862C16.4293 28.6405 16.0846 28.4173 15.7969 28.131C15.5092 27.8447 15.285 27.5017 15.1386 27.1239C14.9449 26.6029 14.8424 26.0528 14.8356 25.4974C14.7937 24.5736 14.7845 24.2967 14.7845 21.9583C14.7845 19.62 14.7933 19.343 14.8356 18.4193C14.8424 17.8639 14.9449 17.3137 15.1386 16.7928C15.285 16.415 15.5092 16.0719 15.7969 15.7856C16.0846 15.4993 16.4293 15.2762 16.8089 15.1305C17.3323 14.9377 17.8851 14.8357 18.4432 14.8289C19.3714 14.7872 19.6496 14.7781 21.9992 14.7781ZM21.9992 13.2C19.6106 13.2 19.3098 13.21 18.3711 13.2525C17.6407 13.267 16.9181 13.4046 16.234 13.6595C15.6471 13.8796 15.1155 14.2245 14.6764 14.67C14.2282 15.1073 13.8814 15.6366 13.6602 16.221C13.404 16.9019 13.2657 17.6211 13.2512 18.348C13.2093 19.2813 13.1992 19.5808 13.1992 21.9579C13.1992 24.3351 13.2093 24.6345 13.252 25.5687C13.2665 26.2956 13.4048 27.0148 13.661 27.6956C13.882 28.28 14.2285 28.8093 14.6764 29.2466C15.1158 29.6923 15.6476 30.0372 16.2348 30.2571C16.9189 30.5121 17.6416 30.6497 18.3719 30.6642C19.3106 30.7059 19.6102 30.7167 22.0001 30.7167C24.3899 30.7167 24.6895 30.7067 25.6282 30.6642C26.3586 30.6497 27.0812 30.5121 27.7653 30.2571C28.3497 30.0317 28.8804 29.6874 29.3234 29.2461C29.7665 28.8049 30.1121 28.2766 30.3383 27.6948C30.5944 27.0139 30.7327 26.2948 30.7473 25.5679C30.7892 24.6345 30.7992 24.3351 30.7992 21.9579C30.7992 19.5808 30.7892 19.2813 30.7464 18.3471C30.7319 17.6202 30.5936 16.9011 30.3374 16.2202C30.1164 15.6358 29.7699 15.1065 29.3221 14.6692C28.8827 14.2235 28.3508 13.8787 27.7636 13.6587C27.0795 13.4038 26.3569 13.2661 25.6265 13.2517C24.6887 13.21 24.3878 13.2 21.9992 13.2Z" fill="white"/>
<path d="M21.9995 17.4607C21.1057 17.4607 20.232 17.7245 19.4889 18.2186C18.7457 18.7128 18.1665 19.4152 17.8245 20.237C17.4824 21.0588 17.3929 21.9631 17.5673 22.8355C17.7417 23.7079 18.1721 24.5093 18.8041 25.1383C19.4361 25.7673 20.2413 26.1956 21.1179 26.3691C21.9945 26.5427 22.9031 26.4536 23.7288 26.1132C24.5546 25.7728 25.2603 25.1964 25.7569 24.4568C26.2535 23.7172 26.5185 22.8476 26.5185 21.9581C26.5185 20.7653 26.0424 19.6214 25.1949 18.778C24.3474 17.9345 23.198 17.4607 21.9995 17.4607ZM21.9995 24.8774C21.4193 24.8774 20.8522 24.7062 20.3698 24.3854C19.8874 24.0647 19.5115 23.6087 19.2894 23.0753C19.0674 22.5419 19.0093 21.9549 19.1225 21.3886C19.2357 20.8223 19.5151 20.3021 19.9253 19.8938C20.3355 19.4856 20.8582 19.2075 21.4272 19.0949C21.9962 18.9822 22.586 19.0401 23.122 19.261C23.658 19.482 24.1161 19.8562 24.4385 20.3362C24.7608 20.8163 24.9328 21.3807 24.9328 21.9581C24.9328 22.7324 24.6238 23.4749 24.0737 24.0224C23.5236 24.5699 22.7774 24.8774 21.9995 24.8774Z" fill="white"/>
<path d="M26.6966 18.3338C27.2798 18.3338 27.7526 17.8633 27.7526 17.2829C27.7526 16.7025 27.2798 16.2319 26.6966 16.2319C26.1134 16.2319 25.6406 16.7025 25.6406 17.2829C25.6406 17.8633 26.1134 18.3338 26.6966 18.3338Z" fill="white"/>
</svg>
