<svg width="41" height="40" viewBox="0 0 41 40" fill="none" xmlns="http://www.w3.org/2000/svg">
<path d="M31.5206 27.7055C29.279 30.9598 27.0742 34.1648 24.8695 37.3699C24.803 37.3294 24.7365 37.2889 24.6701 37.2484C25.6483 35.1875 26.6266 33.1267 27.6048 31.0657C29.1195 27.8744 30.6346 24.6833 32.1482 21.4914C32.2995 21.1725 32.5543 20.8837 32.1126 20.5424C28.6496 17.8665 25.1998 15.1739 21.6464 12.409C14.4665 21.5768 7.31605 30.7069 0.0379662 40C-0.0193298 38.6423 -0.106045 37.5728 0.576924 36.4821C2.98048 32.6436 5.28105 28.742 7.61943 24.8635C7.77838 24.5999 7.92685 24.3301 8.11154 24.0086C7.61854 23.6972 7.16857 23.413 6.66606 23.0956C4.48722 24.793 2.32014 26.4813 0.0469839 28.2522C0.0469839 18.751 0.0469839 9.39105 0.0469839 0C13.7065 0 27.3234 0 41 0C41 7.22516 41 14.4343 41 21.7574C39.6698 21.0403 38.4084 20.3603 37.0846 19.6466C35.22 22.3488 33.3888 25.0026 31.5206 27.7055Z" fill="#EE2E24"/>
</svg>
