<svg width="179" height="24" viewBox="0 0 179 24" fill="none" xmlns="http://www.w3.org/2000/svg">
<path d="M18.4459 16.5619C17.1341 18.4865 15.8439 20.3821 14.5537 22.2776C14.5148 22.2537 14.4759 22.2297 14.437 22.2058C15.0095 20.9869 15.5819 19.7681 16.1544 18.5492C17.0408 16.6617 17.9274 14.7744 18.8132 12.8867C18.9017 12.698 19.0508 12.5272 18.7924 12.3254C16.7658 10.7428 14.747 9.15028 12.6675 7.51504C8.46581 12.9371 4.28137 18.3369 0.0222179 23.8332C-0.0113118 23.0302 -0.0620578 22.3977 0.337617 21.7526C1.74418 19.4824 3.09048 17.1748 4.45891 14.881C4.55193 14.7251 4.63881 14.5655 4.74689 14.3754C4.45838 14.1912 4.19506 14.0231 3.90099 13.8354C2.62593 14.8393 1.35775 15.8378 0.0274951 16.8852C0.0274951 11.2659 0.0274951 5.73016 0.0274951 0.176025C8.02106 0.176025 15.9897 0.176025 23.9933 0.176025C23.9933 4.44919 23.9933 8.71287 23.9933 13.044C23.2148 12.6198 22.4767 12.2177 21.702 11.7956C20.6108 13.3937 19.5392 14.9632 18.4459 16.5619Z" fill="#EE2E24"/>
<path d="M120.686 10.8913C120.367 11.1876 120.073 11.4583 119.801 11.7085C120.421 12.3547 120.967 12.9571 121.55 13.5196C122.064 14.0149 122.316 14.5838 122.303 15.3006C122.282 16.4365 122.297 17.5731 122.297 18.7095C122.296 19.306 122.089 19.8102 121.66 20.234C120.661 21.2204 119.671 22.216 118.681 23.2104C118.275 23.6181 117.8 23.861 117.214 23.8609C113.788 23.8603 110.362 23.8611 106.937 23.86C106.872 23.86 106.807 23.8433 106.717 23.8308C106.717 15.9585 106.717 8.09473 106.717 0.188193C106.856 0.177427 106.999 0.156959 107.141 0.15688C110.35 0.15509 113.558 0.163302 116.766 0.149688C117.499 0.146578 118.085 0.390497 118.594 0.915669C119.548 1.8995 120.522 2.86355 121.498 3.82468C121.916 4.23573 122.122 4.71511 122.117 5.30006C122.109 6.26921 122.081 7.24004 122.126 8.20722C122.166 9.07407 121.914 9.77746 121.241 10.3323C121.048 10.4907 120.887 10.6869 120.686 10.8913ZM111.823 13.7025C111.479 13.7025 111.135 13.7025 110.789 13.7025C110.789 15.872 110.789 17.9843 110.789 20.1338C112.927 20.1338 115.043 20.1363 117.159 20.1324C117.903 20.1311 118.21 19.8221 118.214 19.0576C118.222 17.6388 118.221 16.2199 118.214 14.801C118.211 13.9898 117.91 13.7043 117.081 13.7032C115.362 13.701 113.643 13.7025 111.823 13.7025ZM117.342 9.95872C117.835 9.82695 118.055 9.47544 118.059 8.99618C118.07 7.62634 118.079 6.25606 118.056 4.8865C118.044 4.19539 117.671 3.87967 116.959 3.88031C115.455 3.88166 113.952 3.88941 112.448 3.89357C111.901 3.89508 111.355 3.89381 110.807 3.89381C110.807 5.95763 110.807 7.9656 110.807 9.97483C112.983 9.97483 115.121 9.97483 117.342 9.95872Z" fill="white"/>
<path d="M55.6098 0.155334C56.2948 0.1555 56.9298 0.162653 57.5645 0.153788C58.1505 0.145602 58.6392 0.362812 59.0471 0.768464C60.0777 1.79343 61.1002 2.82657 62.1328 3.84957C62.5543 4.2672 62.7013 4.78298 62.704 5.35052C62.7104 6.70378 62.7095 8.0571 62.7048 9.41037C62.7028 10.0038 62.5081 10.519 62.0595 10.9293C61.5055 11.4359 60.9598 11.9517 60.4102 12.4637C61.1497 13.7186 61.8366 14.8588 62.4917 16.0169C62.6307 16.2626 62.7183 16.5736 62.7198 16.855C62.7311 19.0101 62.7153 21.1654 62.708 23.3206C62.7074 23.4836 62.7079 23.6467 62.7079 23.8353C61.3318 23.8353 60.0035 23.8353 58.6262 23.8353C58.6262 20.7462 58.6262 17.6648 58.6262 14.5606C56.1298 14.5606 53.6823 14.5606 51.1951 14.5606C51.1951 17.6458 51.1951 20.7125 51.1951 23.8202C49.8178 23.8202 48.4792 23.8202 47.1172 23.8202C47.1172 15.9537 47.1172 8.09096 47.1172 0.155334C49.9302 0.155334 52.7449 0.155334 55.6098 0.155334ZM56.5615 3.8796C54.7797 3.8796 52.9978 3.8796 51.2025 3.8796C51.2025 6.20275 51.2025 8.4803 51.2025 10.8098C53.4252 10.8098 55.6251 10.8189 57.8249 10.8022C58.2756 10.7987 58.6101 10.4183 58.6144 9.92554C58.6294 8.20604 58.6319 6.48618 58.6123 4.76677C58.6061 4.22377 58.2212 3.89831 57.663 3.88195C57.3293 3.87217 56.9952 3.87979 56.5615 3.8796Z" fill="white"/>
<path d="M158.115 14.2013C159.19 15.5963 159.566 17.1142 159.433 18.8483C159.307 20.4898 159.406 22.1485 159.406 23.8304C158.023 23.8304 156.694 23.8304 155.316 23.8304C155.316 20.7543 155.316 17.6719 155.316 14.5637C152.818 14.5637 150.37 14.5637 147.867 14.5637C147.867 17.6554 147.867 20.736 147.867 23.8387C146.483 23.8387 145.154 23.8387 143.801 23.8387C143.801 15.9546 143.801 8.09048 143.801 0.180153C143.958 0.171997 144.118 0.156574 144.277 0.156506C147.536 0.155108 150.795 0.165588 154.054 0.147754C154.791 0.143721 155.373 0.388438 155.882 0.910645C156.814 1.86861 157.759 2.8153 158.718 3.74625C159.168 4.18316 159.384 4.6985 159.387 5.30897C159.393 6.6793 159.392 8.0497 159.388 9.42004C159.386 10.0148 159.184 10.5268 158.735 10.936C158.181 11.442 157.635 11.9575 157.092 12.4623C157.473 13.108 157.786 13.6382 158.115 14.2013ZM150.534 10.8049C151.752 10.8095 152.971 10.8171 154.19 10.8176C154.986 10.818 155.302 10.4999 155.304 9.69133C155.309 8.13859 155.308 6.58583 155.305 5.0331C155.303 4.19759 154.986 3.88107 154.16 3.88033C152.19 3.87854 150.22 3.87919 148.25 3.88101C148.123 3.88113 147.996 3.89959 147.897 3.9073C147.897 6.2253 147.897 8.50297 147.897 10.8046C148.766 10.8046 149.6 10.8046 150.534 10.8049Z" fill="white"/>
<path d="M132.886 0.13688C135.385 0.136658 137.837 0.136658 140.313 0.136658C140.313 1.37426 140.313 2.58795 140.313 3.84046C136.84 3.84046 133.359 3.84046 129.85 3.84046C129.85 5.93697 129.85 7.99961 129.85 10.1152C132.642 10.1152 135.426 10.1152 138.252 10.1152C138.252 11.3753 138.252 12.5838 138.252 13.8429C135.469 13.8429 132.672 13.8429 129.849 13.8429C129.849 15.9566 129.849 18.0202 129.849 20.1174C133.324 20.1174 136.793 20.1174 140.3 20.1174C140.3 21.3596 140.3 22.5694 140.3 23.82C135.481 23.82 130.647 23.82 125.777 23.82C125.777 15.9569 125.777 8.08201 125.777 0.137103C128.138 0.137103 130.488 0.137103 132.886 0.13688Z" fill="white"/>
<path d="M99.1665 3.68073C99.1665 2.49677 99.1665 1.36295 99.1665 0.192424C100.523 0.192424 101.85 0.192424 103.218 0.192424C103.226 0.292342 103.244 0.419593 103.244 0.546849C103.245 6.56162 103.243 12.5764 103.249 18.5911C103.25 19.2472 103.043 19.7851 102.569 20.2472C101.588 21.2033 100.622 22.1754 99.6615 23.152C99.1888 23.6326 98.6314 23.8645 97.9597 23.8621C96.2722 23.8559 94.5847 23.8555 92.8973 23.8622C92.2091 23.865 91.6369 23.6366 91.1507 23.1389C90.1818 22.1469 89.1951 21.1723 88.2119 20.1943C87.8007 19.7853 87.5877 19.3015 87.5879 18.7177C87.5902 12.586 87.5898 6.45432 87.5907 0.322616C87.5907 0.290287 87.5994 0.25796 87.6091 0.190613C88.9294 0.190613 90.2549 0.190613 91.6415 0.190613C91.6415 0.359993 91.6415 0.536472 91.6415 0.712951C91.6415 6.72772 91.6414 12.7425 91.6416 18.7572C91.6416 19.8685 91.8857 20.112 92.9983 20.1122C94.6356 20.1125 96.273 20.1129 97.9103 20.112C98.893 20.1115 99.1656 19.8441 99.1658 18.8681C99.1672 13.8223 99.1665 8.7766 99.1665 3.68073Z" fill="white"/>
<path d="M82.3885 17.5177C82.9629 19.6305 83.5303 21.7029 84.1103 23.8211C82.6398 23.8211 81.2008 23.8211 79.7058 23.8211C79.2401 21.8448 78.7677 19.8403 78.2929 17.826C76.1947 17.826 74.1264 17.826 72.0143 17.826C71.5462 19.8159 71.078 21.8063 70.6025 23.8276C69.1534 23.8276 67.7084 23.8276 66.2051 23.8276C66.4587 22.883 66.7038 21.9552 66.9568 21.0295C68.8197 14.2133 70.6874 7.39839 72.5387 0.57902C72.6319 0.235949 72.7647 0.141882 73.11 0.146655C74.6123 0.167425 76.115 0.155573 77.6446 0.155573C79.2273 5.94309 80.8044 11.7102 82.3885 17.5177ZM75.618 14.0761C76.1957 14.0761 76.7734 14.0761 77.4112 14.0761C76.9949 12.3461 76.6107 10.6785 76.1898 9.02028C75.7609 7.33033 76.1158 5.60629 75.9438 3.91211C75.3843 3.91211 74.8445 3.91211 74.1834 3.91211C74.7252 7.42176 73.6986 10.7067 72.8849 14.0761C73.822 14.0761 74.6699 14.0761 75.618 14.0761Z" fill="white"/>
<path d="M177.261 2.67571C179.178 4.62678 178.989 4.02122 178.997 6.83395C178.999 7.46838 178.997 8.10281 178.997 8.79529C178.319 8.79529 177.655 8.79529 176.991 8.79529C176.326 8.79529 175.66 8.79529 174.942 8.79529C174.942 7.58491 174.942 6.40469 174.942 5.22447C174.941 4.15419 174.672 3.87977 173.623 3.87963C171.768 3.87939 169.913 3.87782 168.058 3.88039C167.276 3.88148 166.935 4.21986 166.935 5.01408C166.932 9.67718 166.932 14.3403 166.935 19.0034C166.936 19.7972 167.274 20.1322 168.06 20.1329C170.667 20.1351 173.274 20.1337 175.882 20.1337C175.992 20.1337 176.103 20.1337 176.294 20.1337C175.409 18.8872 174.608 17.6808 173.72 16.5422C173.266 15.9593 173.149 15.3718 173.27 14.6583C175.16 14.6583 177.055 14.6583 178.965 14.6583C178.965 16.1631 178.994 17.6475 178.942 19.1291C178.931 19.4551 178.697 19.8311 178.458 20.0816C177.432 21.1578 176.366 22.1962 175.314 23.2476C174.903 23.6577 174.402 23.8569 173.826 23.8579C171.904 23.861 169.982 23.8608 168.06 23.8574C167.446 23.8564 166.928 23.63 166.493 23.1908C165.517 22.2048 164.54 21.2201 163.549 20.2494C163.091 19.8011 162.866 19.2752 162.866 18.6405C162.867 14.2281 162.868 9.8157 162.865 5.40331C162.865 4.71366 163.109 4.1499 163.61 3.66579C164.547 2.75977 165.466 1.83418 166.377 0.901718C166.872 0.395094 167.438 0.140064 168.159 0.148263C170.014 0.169377 171.869 0.168024 173.724 0.148879C174.424 0.141656 174.985 0.379082 175.466 0.875583C176.047 1.47605 176.645 2.05971 177.261 2.67571Z" fill="white"/>
<path d="M36.6555 20.1344C38.0853 20.1344 39.4649 20.1344 40.9385 20.1344C40.4472 19.4406 40.0086 18.8206 39.5694 18.201C39.164 17.6292 38.7984 17.0227 38.341 16.496C37.8657 15.9486 37.7858 15.3559 37.9025 14.66C39.7936 14.66 41.6901 14.66 43.6562 14.66C43.6562 15.12 43.6563 15.5809 43.6562 16.0418C43.6562 16.9106 43.6555 17.7795 43.6561 18.6483C43.6566 19.2621 43.4506 19.7788 43.0034 20.2164C42.0122 21.1862 41.034 22.1694 40.0606 23.1572C39.5876 23.6371 39.0289 23.8653 38.357 23.8628C36.5191 23.8559 34.6811 23.8548 32.8431 23.8633C32.1352 23.8666 31.5532 23.628 31.0555 23.116C30.1123 22.1456 29.1502 21.1933 28.1864 20.2433C27.7328 19.7962 27.5129 19.2747 27.514 18.6339C27.521 14.2228 27.5214 9.8117 27.5137 5.40059C27.5125 4.72491 27.738 4.17608 28.2225 3.70349C29.1793 2.7702 30.1222 1.82243 31.0587 0.868753C31.529 0.389876 32.0702 0.144785 32.7519 0.150551C34.6398 0.166519 36.5281 0.165481 38.4161 0.150907C39.0771 0.145804 39.6132 0.37366 40.0724 0.837334C41.0483 1.82269 42.059 2.77536 42.9974 3.79488C43.3046 4.12863 43.5837 4.61747 43.6131 5.05309C43.6957 6.27949 43.6419 7.51509 43.6419 8.77123C42.288 8.77123 40.9592 8.77123 39.5743 8.77123C39.5743 7.6187 39.5745 6.47194 39.574 5.32518C39.5739 5.14142 39.5811 4.95684 39.5669 4.77404C39.5258 4.24515 39.1903 3.88917 38.6695 3.88624C36.6144 3.8747 34.5592 3.8759 32.5041 3.88553C32.01 3.88785 31.7021 4.17244 31.6101 4.66391C31.5767 4.84271 31.5736 5.02903 31.5735 5.21192C31.5716 9.74 31.5716 14.2681 31.5724 18.7962C31.5725 19.8707 31.8346 20.134 32.896 20.1343C34.1325 20.1346 35.3689 20.1344 36.6555 20.1344Z" fill="white"/>
</svg>
