<svg width="160" height="22" viewBox="0 0 160 22" fill="none" xmlns="http://www.w3.org/2000/svg">
<path d="M16.4881 15.0781C15.3155 16.7985 14.1622 18.4928 13.0089 20.1872C12.9742 20.1658 12.9394 20.1444 12.9046 20.123C13.4163 19.0335 13.9281 17.944 14.4397 16.8545C15.2321 15.1674 16.0246 13.4804 16.8164 11.793C16.8955 11.6244 17.0288 11.4717 16.7977 11.2913C14.9863 9.87667 13.1817 8.4532 11.323 6.99153C7.56724 11.8381 3.82694 16.6648 0.0198597 21.5776C-0.0101112 20.8599 -0.0554709 20.2945 0.301782 19.7179C1.55905 17.6886 2.76246 15.626 3.98563 13.5757C4.06878 13.4363 4.14644 13.2937 4.24305 13.1237C3.98517 12.9591 3.74979 12.8088 3.48694 12.641C2.34721 13.5384 1.21364 14.4309 0.0245767 15.3671C0.0245767 10.3442 0.0245767 5.3961 0.0245767 0.431488C7.16969 0.431488 14.2926 0.431488 21.4466 0.431488C21.4466 4.25109 21.4466 8.06222 21.4466 11.9336C20.7508 11.5545 20.091 11.195 19.3985 10.8177C18.4232 12.2462 17.4653 13.6492 16.4881 15.0781Z" fill="#EE2E24"/>
<path d="M107.877 10.0092C107.591 10.274 107.328 10.516 107.085 10.7396C107.64 11.3172 108.127 11.8557 108.649 12.3586C109.108 12.8012 109.333 13.3098 109.321 13.9505C109.303 14.9659 109.316 15.9818 109.316 16.9975C109.316 17.5308 109.13 17.9815 108.747 18.3603C107.854 19.2419 106.969 20.1319 106.084 21.0208C105.721 21.3852 105.297 21.6022 104.772 21.6022C101.71 21.6016 98.6483 21.6023 95.5862 21.6014C95.5285 21.6014 95.4707 21.5865 95.3898 21.5753C95.3898 14.5385 95.3898 7.50946 95.3898 0.442129C95.5146 0.432506 95.6418 0.414211 95.769 0.41414C98.6369 0.412539 101.505 0.41988 104.373 0.407711C105.028 0.404931 105.551 0.62296 106.006 1.09239C106.859 1.97179 107.729 2.83352 108.602 3.69263C108.976 4.06006 109.16 4.48855 109.156 5.01142C109.148 5.8777 109.123 6.74549 109.163 7.61001C109.199 8.38485 108.974 9.01358 108.372 9.50951C108.2 9.65115 108.056 9.82649 107.877 10.0092ZM99.9543 12.522C99.6466 12.522 99.3388 12.522 99.03 12.522C99.03 14.4612 99.03 16.3493 99.03 18.2707C100.941 18.2707 102.832 18.2729 104.723 18.2695C105.389 18.2683 105.663 17.9921 105.667 17.3087C105.673 16.0405 105.673 14.7722 105.667 13.5039C105.664 12.7788 105.395 12.5236 104.654 12.5226C103.117 12.5207 101.58 12.522 99.9543 12.522ZM104.887 9.1756C105.328 9.05781 105.525 8.74361 105.528 8.31523C105.538 7.09078 105.546 5.86595 105.525 4.64176C105.515 4.024 105.182 3.74179 104.545 3.74236C103.201 3.74357 101.857 3.7505 100.513 3.75421C100.024 3.75556 99.5355 3.75443 99.0455 3.75443C99.0455 5.59919 99.0455 7.39404 99.0455 9.19C100.991 9.19 102.902 9.19 104.887 9.1756Z" fill="#100F0F"/>
<path d="M49.7072 0.412776C50.3196 0.412924 50.8871 0.419318 51.4545 0.411393C51.9784 0.404076 52.4152 0.598232 52.7797 0.960828C53.701 1.87701 54.6149 2.80048 55.5379 3.7149C55.9147 4.0882 56.046 4.54923 56.0485 5.05654C56.0542 6.26616 56.0534 7.47584 56.0492 8.68547C56.0474 9.21594 55.8734 9.67645 55.4724 10.0432C54.9772 10.496 54.4894 10.957 53.9982 11.4147C54.6591 12.5364 55.2732 13.5556 55.8588 14.5908C55.983 14.8104 56.0613 15.0884 56.0626 15.3399C56.0728 17.2663 56.0586 19.1928 56.052 21.1193C56.0515 21.265 56.052 21.4107 56.052 21.5793C54.8219 21.5793 53.6346 21.5793 52.4035 21.5793C52.4035 18.8181 52.4035 16.0638 52.4035 13.289C50.1721 13.289 47.9843 13.289 45.7612 13.289C45.7612 16.0468 45.7612 18.788 45.7612 21.5658C44.53 21.5658 43.3336 21.5658 42.1161 21.5658C42.1161 14.5342 42.1161 7.50611 42.1161 0.412776C44.6305 0.412776 47.1465 0.412776 49.7072 0.412776ZM50.558 3.74174C48.9653 3.74174 47.3725 3.74174 45.7678 3.74174C45.7678 5.81831 45.7678 7.85412 45.7678 9.93633C47.7546 9.93633 49.721 9.94453 51.6872 9.92955C52.0901 9.92648 52.3892 9.5864 52.393 9.14596C52.4063 7.60897 52.4086 6.07166 52.3911 4.53475C52.3855 4.04938 52.0415 3.75847 51.5425 3.74384C51.2443 3.7351 50.9456 3.74192 50.558 3.74174Z" fill="#100F0F"/>
<path d="M141.332 12.9679C142.293 14.2148 142.629 15.5716 142.51 17.1216C142.398 18.5889 142.486 20.0715 142.486 21.5749C141.25 21.5749 140.063 21.5749 138.83 21.5749C138.83 18.8254 138.83 16.0701 138.83 13.2918C136.597 13.2918 134.409 13.2918 132.172 13.2918C132.172 16.0553 132.172 18.8089 132.172 21.5824C130.935 21.5824 129.747 21.5824 128.538 21.5824C128.538 14.5351 128.538 7.50566 128.538 0.434949C128.678 0.427658 128.821 0.413873 128.963 0.413811C131.876 0.412562 134.789 0.421929 137.702 0.405989C138.361 0.402383 138.882 0.621126 139.336 1.08791C140.17 1.94419 141.014 2.7904 141.871 3.62254C142.274 4.01307 142.466 4.47371 142.469 5.01938C142.475 6.24427 142.474 7.46921 142.47 8.69411C142.468 9.22577 142.288 9.68336 141.887 10.0491C141.391 10.5015 140.903 10.9623 140.418 11.4134C140.759 11.9906 141.038 12.4645 141.332 12.9679ZM134.556 9.93198C135.645 9.93609 136.735 9.94289 137.824 9.94336C138.536 9.94367 138.818 9.65934 138.82 8.9366C138.824 7.54867 138.824 6.16072 138.82 4.7728C138.819 4.02597 138.536 3.74305 137.797 3.74238C136.036 3.74079 134.275 3.74137 132.514 3.743C132.401 3.7431 132.287 3.7596 132.199 3.7665C132.199 5.83846 132.199 7.87437 132.199 9.93168C132.976 9.93168 133.721 9.93168 134.556 9.93198Z" fill="#100F0F"/>
<path d="M118.782 0.396104C121.015 0.395905 123.207 0.395905 125.42 0.395905C125.42 1.50214 125.42 2.58702 125.42 3.70658C122.315 3.70658 119.204 3.70658 116.067 3.70658C116.067 5.58057 116.067 7.42427 116.067 9.31535C118.563 9.31535 121.052 9.31535 123.578 9.31535C123.578 10.4417 123.578 11.5219 123.578 12.6474C121.09 12.6474 118.59 12.6474 116.066 12.6474C116.066 14.5367 116.066 16.3813 116.066 18.2559C119.173 18.2559 122.274 18.2559 125.408 18.2559C125.408 19.3662 125.408 20.4476 125.408 21.5655C121.101 21.5655 116.78 21.5655 112.427 21.5655C112.427 14.537 112.427 7.49793 112.427 0.396303C114.537 0.396303 116.638 0.396303 118.782 0.396104Z" fill="#100F0F"/>
<path d="M88.6409 3.56358C88.6409 2.50529 88.6409 1.49181 88.6409 0.445528C89.853 0.445528 91.0397 0.445528 92.2623 0.445528C92.2692 0.53484 92.2856 0.648585 92.2857 0.762334C92.2869 6.13869 92.2843 11.515 92.2901 16.8914C92.2908 17.4778 92.1062 17.9586 91.6823 18.3717C90.8053 19.2262 89.9421 20.0952 89.0833 20.9682C88.6608 21.3977 88.1626 21.6051 87.5622 21.6029C86.0538 21.5973 84.5454 21.597 83.0371 21.603C82.422 21.6054 81.9105 21.4013 81.4759 20.9564C80.6099 20.0698 79.7279 19.1986 78.8491 18.3244C78.4815 17.9588 78.2911 17.5264 78.2913 17.0045C78.2933 11.5237 78.2929 6.04278 78.2938 0.561901C78.2938 0.533004 78.3016 0.504108 78.3103 0.443909C79.4903 0.443909 80.6752 0.443909 81.9146 0.443909C81.9146 0.595311 81.9146 0.753058 81.9146 0.910806C81.9146 6.28716 81.9145 11.6635 81.9147 17.0399C81.9147 18.0332 82.1329 18.2509 83.1274 18.251C84.5909 18.2512 86.0545 18.2516 87.5181 18.2508C88.3964 18.2504 88.6401 18.0114 88.6403 17.1389C88.6415 12.6287 88.6409 8.11857 88.6409 3.56358Z" fill="#100F0F"/>
<path d="M73.6437 15.932C74.1571 17.8206 74.6643 19.673 75.1827 21.5664C73.8683 21.5664 72.582 21.5664 71.2457 21.5664C70.8294 19.7999 70.4071 18.0082 69.9828 16.2076C68.1073 16.2076 66.2585 16.2076 64.3706 16.2076C63.9522 17.9864 63.5337 19.7654 63.1087 21.5722C61.8134 21.5722 60.5217 21.5722 59.178 21.5722C59.4046 20.7278 59.6238 19.8985 59.8499 19.0711C61.5151 12.9784 63.1846 6.88681 64.8394 0.791259C64.9226 0.484602 65.0414 0.400519 65.35 0.404785C66.6928 0.42335 68.036 0.412757 69.4033 0.412757C70.818 5.58598 72.2278 10.7409 73.6437 15.932ZM67.5918 12.8557C68.1082 12.8557 68.6246 12.8557 69.1947 12.8557C68.8225 11.3094 68.4791 9.8188 68.1029 8.33655C67.7196 6.82598 68.0368 5.28493 67.883 3.77057C67.3829 3.77057 66.9004 3.77057 66.3094 3.77057C66.7937 6.9077 65.8762 9.84395 65.1488 12.8557C65.9865 12.8557 66.7443 12.8557 67.5918 12.8557Z" fill="#100F0F"/>
<path d="M158.447 2.6653C160.16 4.40928 159.991 3.86799 159.998 6.38218C160 6.94927 159.998 7.51636 159.998 8.13534C159.392 8.13534 158.798 8.13534 158.205 8.13534C157.61 8.13534 157.015 8.13534 156.373 8.13534C156.373 7.05343 156.374 5.99848 156.373 4.94353C156.373 3.98685 156.132 3.74156 155.195 3.74144C153.536 3.74122 151.878 3.73982 150.22 3.74211C149.521 3.74308 149.217 4.04555 149.216 4.75547C149.213 8.92362 149.213 13.0918 149.216 17.2599C149.217 17.9695 149.519 18.269 150.221 18.2696C152.552 18.2715 154.883 18.2703 157.213 18.2703C157.312 18.2703 157.411 18.2703 157.582 18.2703C156.791 17.1561 156.075 16.0777 155.281 15.06C154.875 14.5389 154.771 14.0138 154.879 13.3761C156.568 13.3761 158.262 13.3761 159.969 13.3761C159.969 14.7211 159.995 16.0479 159.949 17.3723C159.939 17.6637 159.73 17.9998 159.517 18.2237C158.599 19.1857 157.646 20.1139 156.706 21.0536C156.339 21.4202 155.891 21.5983 155.376 21.5992C153.658 21.6019 151.94 21.6018 150.222 21.5988C149.673 21.5978 149.21 21.3955 148.821 21.0029C147.949 20.1215 147.075 19.2414 146.19 18.3737C145.781 17.973 145.579 17.5029 145.579 16.9356C145.58 12.9915 145.581 9.04744 145.578 5.10338C145.578 4.48694 145.797 3.98301 146.244 3.55029C147.082 2.74044 147.903 1.91309 148.717 1.0796C149.16 0.626748 149.666 0.398788 150.31 0.406116C151.968 0.424989 153.627 0.42378 155.285 0.406667C155.91 0.40021 156.412 0.612435 156.842 1.05624C157.361 1.59297 157.896 2.11468 158.447 2.6653Z" fill="#100F0F"/>
<path d="M32.7649 18.2709C34.0429 18.2709 35.2761 18.2709 36.5933 18.2709C36.1541 17.6508 35.7621 17.0966 35.3695 16.5428C35.0071 16.0317 34.6803 15.4895 34.2715 15.0187C33.8466 14.5295 33.7752 13.9997 33.8795 13.3776C35.5699 13.3776 37.2651 13.3776 39.0226 13.3776C39.0226 13.7888 39.0226 14.2007 39.0226 14.6127C39.0225 15.3893 39.0219 16.166 39.0225 16.9426C39.0229 17.4912 38.8388 17.9531 38.4391 18.3442C37.553 19.2111 36.6786 20.09 35.8085 20.9729C35.3857 21.4019 34.8864 21.6059 34.2858 21.6036C32.643 21.5974 31 21.5965 29.3572 21.604C28.7244 21.607 28.2042 21.3937 27.7593 20.9361C26.9162 20.0687 26.0562 19.2175 25.1947 18.3683C24.7892 17.9687 24.5927 17.5025 24.5936 16.9297C24.6 12.9868 24.6003 9.0439 24.5934 5.10099C24.5923 4.49703 24.7939 4.00645 25.2269 3.58403C26.0822 2.7498 26.925 1.90262 27.7622 1.05017C28.1825 0.622123 28.6663 0.403047 29.2756 0.4082C30.9632 0.422474 32.651 0.421546 34.3386 0.408518C34.9295 0.403957 35.4087 0.607628 35.8191 1.02209C36.6914 1.90286 37.5949 2.75441 38.4337 3.66572C38.7083 3.96404 38.9577 4.401 38.984 4.79038C39.0579 5.8866 39.0098 6.99106 39.0098 8.11387C37.7995 8.11387 36.6118 8.11387 35.3739 8.11387C35.3739 7.08367 35.3741 6.05863 35.3736 5.03359C35.3736 4.86933 35.38 4.70435 35.3673 4.54095C35.3305 4.0682 35.0306 3.75 34.5652 3.74738C32.7282 3.73707 30.8911 3.73813 29.0541 3.74675C28.6125 3.74882 28.3372 4.0032 28.2551 4.44251C28.2252 4.60233 28.2224 4.76887 28.2223 4.93235C28.2206 8.97982 28.2206 13.0273 28.2213 17.0748C28.2214 18.0353 28.4556 18.2706 29.4045 18.2709C30.5097 18.2711 31.6149 18.2709 32.7649 18.2709Z" fill="#100F0F"/>
</svg>
