<svg width="58" height="58" viewBox="0 0 58 58" fill="none" xmlns="http://www.w3.org/2000/svg">
<circle cx="29" cy="28.9999" r="29" fill="#EE2E24"/>
<mask id="mask0_662_1171" style="mask-type:alpha" maskUnits="userSpaceOnUse" x="0" y="-1" width="58" height="59">
<circle cx="29" cy="28.9999" r="29" fill="#D9D9D9"/>
</mask>
<g mask="url(#mask0_662_1171)">
<path d="M20 28.2499C19.5858 28.2499 19.25 28.5857 19.25 28.9999C19.25 29.4141 19.5858 29.7499 20 29.7499L20 28.2499ZM37.5303 29.5302C37.8232 29.2373 37.8232 28.7624 37.5303 28.4695L32.7574 23.6966C32.4645 23.4037 31.9896 23.4037 31.6967 23.6966C31.4038 23.9895 31.4038 24.4643 31.6967 24.7572L35.9393 28.9999L31.6967 33.2425C31.4038 33.5354 31.4038 34.0103 31.6967 34.3032C31.9896 34.5961 32.4645 34.5961 32.7574 34.3032L37.5303 29.5302ZM20 29.7499L37 29.7499L37 28.2499L20 28.2499L20 29.7499Z" fill="#100F0F"/>
</g>
</svg>
