<svg width="27" height="27" viewBox="0 0 27 27" fill="none" xmlns="http://www.w3.org/2000/svg">
<path fill-rule="evenodd" clip-rule="evenodd" d="M7.26319 3.53345C7.08811 3.53345 6.91946 3.59939 6.79081 3.71814L3.26998 6.96814C3.12434 7.10258 3.04594 7.28923 3.0459 7.47988V7.47999V7.48007V9.64654C3.0459 10.6913 3.45846 11.6346 4.12891 12.3368V23.7294C4.12891 24.114 4.44071 24.4258 4.82533 24.4258H22.7003C23.085 24.4258 23.3968 24.114 23.3968 23.7294V12.3381C24.068 11.6358 24.481 10.6919 24.481 9.64654V7.47988H24.4805C24.4804 7.28923 24.402 7.10258 24.2564 6.96814L20.7356 3.71814C20.6069 3.59939 20.4383 3.53345 20.2632 3.53345H7.26319ZM23.0882 8.1763H17.8001V9.64654C17.8001 11.0391 18.9657 12.2001 20.4441 12.2001C21.9226 12.2001 23.0882 11.0391 23.0882 9.64654V8.1763ZM16.4066 8.1763H11.1197V9.64654C11.1197 9.66664 11.1195 9.68669 11.1192 9.70671C11.1522 11.0724 12.3054 12.2002 13.7625 12.2002C15.241 12.2002 16.4066 11.0392 16.4066 9.64664V8.1763ZM9.72563 8.1763H4.43876V9.64654C4.43876 11.0391 5.60433 12.2001 7.08279 12.2001C8.5399 12.2001 9.69311 11.0724 9.72609 9.70669C9.72579 9.68671 9.72563 9.6667 9.72563 9.64664V8.1763ZM5.52357 6.78345L7.53548 4.9263H19.9909L22.0028 6.78345H5.52357ZM7.08279 13.593C8.46311 13.593 9.69309 12.9116 10.4226 11.865C11.1521 12.9117 12.3822 13.5931 13.7625 13.5931C15.1435 13.5931 16.374 12.9111 17.1034 11.8637C17.8328 12.911 19.0632 13.593 20.4441 13.593C20.9955 13.593 21.5228 13.4843 22.0039 13.287V23.033H13.1061V16.1469C13.1061 15.7622 12.7943 15.4504 12.4096 15.4504H8.07631C7.69168 15.4504 7.37988 15.7622 7.37988 16.1469V23.033H5.52176V13.2865C6.00316 13.4841 6.53096 13.593 7.08279 13.593ZM8.77274 23.033H11.7132V16.8433H8.77274V23.033ZM14.9629 16.1469C14.9629 15.7622 15.2747 15.4504 15.6593 15.4504H19.451C19.8356 15.4504 20.1474 15.7622 20.1474 16.1469V19.9385C20.1474 20.3232 19.8356 20.635 19.451 20.635H15.6593C15.2747 20.635 14.9629 20.3232 14.9629 19.9385V16.1469ZM16.3557 16.8433V19.2421H18.7546V16.8433H16.3557Z" fill="white"/>
</svg>
