<svg width="26" height="26" viewBox="0 0 26 26" fill="none" xmlns="http://www.w3.org/2000/svg">
<path d="M12.9813 0.333389C12.6344 0.338575 12.3033 0.478695 12.0581 0.724014L8.72474 4.05735C8.59678 4.18021 8.49461 4.32737 8.42423 4.4902C8.35385 4.65304 8.31667 4.82829 8.31486 5.00568C8.31306 5.18306 8.34666 5.35903 8.41372 5.52327C8.48077 5.6875 8.57992 5.83671 8.70536 5.96215C8.8308 6.08759 8.98 6.18674 9.14424 6.25379C9.30848 6.32084 9.48444 6.35445 9.66183 6.35264C9.83922 6.35084 10.0145 6.31366 10.1773 6.24328C10.3401 6.17289 10.4873 6.07073 10.6102 5.94276L11.6675 4.88547V24.3334C11.665 24.5101 11.6976 24.6855 11.7635 24.8494C11.8294 25.0134 11.9272 25.1626 12.0512 25.2885C12.1753 25.4143 12.3231 25.5142 12.4861 25.5824C12.6491 25.6506 12.8241 25.6857 13.0008 25.6857C13.1775 25.6857 13.3524 25.6506 13.5154 25.5824C13.6784 25.5142 13.8263 25.4143 13.9503 25.2885C14.0744 25.1626 14.1722 25.0134 14.2381 24.8494C14.304 24.6855 14.3366 24.5101 14.3341 24.3334V4.88547L15.3914 5.94276C15.5143 6.07073 15.6614 6.17289 15.8243 6.24328C15.9871 6.31366 16.1623 6.35084 16.3397 6.35264C16.5171 6.35445 16.6931 6.32084 16.8573 6.25379C17.0216 6.18674 17.1708 6.08759 17.2962 5.96215C17.4216 5.83671 17.5208 5.6875 17.5879 5.52327C17.6549 5.35903 17.6885 5.18306 17.6867 5.00568C17.6849 4.82829 17.6477 4.65304 17.5773 4.4902C17.507 4.32737 17.4048 4.18021 17.2768 4.05735L13.9435 0.724014C13.8174 0.597853 13.6672 0.498276 13.502 0.431179C13.3367 0.364082 13.1596 0.330829 12.9813 0.333389ZM1.66745 6.33339C1.31384 6.33342 0.974722 6.47391 0.724681 6.72395C0.47464 6.97399 0.334153 7.31311 0.334118 7.66672V12.3803C0.331619 12.5569 0.364261 12.7324 0.430146 12.8963C0.496031 13.0603 0.593845 13.2095 0.717904 13.3353C0.841964 13.4612 0.989794 13.5611 1.1528 13.6293C1.31581 13.6975 1.49075 13.7326 1.66745 13.7326C1.84415 13.7326 2.01909 13.6975 2.1821 13.6293C2.34511 13.5611 2.49294 13.4612 2.617 13.3353C2.74106 13.2095 2.83887 13.0603 2.90476 12.8963C2.97064 12.7324 3.00328 12.5569 3.00078 12.3803V10.8881C6.77716 15.3798 6.33412 21.4756 6.33412 24.3334C6.33162 24.5101 6.36426 24.6855 6.43015 24.8494C6.49603 25.0134 6.59384 25.1626 6.7179 25.2885C6.84196 25.4143 6.98979 25.5142 7.1528 25.5824C7.31581 25.6506 7.49075 25.6857 7.66745 25.6857C7.84415 25.6857 8.01909 25.6506 8.1821 25.5824C8.34511 25.5142 8.49294 25.4143 8.617 25.2885C8.74106 25.1626 8.83887 25.0134 8.90476 24.8494C8.97064 24.6855 9.00328 24.5101 9.00078 24.3334C9.00078 21.8047 9.6198 14.44 4.91094 9.00006H6.38099C6.55767 9.00255 6.73309 8.96991 6.89705 8.90403C7.06101 8.83814 7.21024 8.74033 7.33606 8.61627C7.46189 8.49221 7.5618 8.34438 7.63 8.18137C7.6982 8.01836 7.73332 7.84342 7.73332 7.66672C7.73332 7.49002 7.6982 7.31508 7.63 7.15207C7.5618 6.98906 7.46189 6.84123 7.33606 6.71718C7.21024 6.59312 7.06101 6.4953 6.89705 6.42942C6.73309 6.36353 6.55767 6.33089 6.38099 6.33339H1.66745ZM19.6206 6.33339C19.4439 6.33089 19.2685 6.36353 19.1045 6.42942C18.9406 6.4953 18.7913 6.59312 18.6655 6.71718C18.5397 6.84123 18.4398 6.98906 18.3716 7.15207C18.3034 7.31508 18.2683 7.49002 18.2683 7.66672C18.2683 7.84342 18.3034 8.01836 18.3716 8.18137C18.4398 8.34438 18.5397 8.49221 18.6655 8.61627C18.7913 8.74033 18.9406 8.83814 19.1045 8.90403C19.2685 8.96991 19.4439 9.00255 19.6206 9.00006H21.101C16.6264 14.249 17.0008 21.7284 17.0008 24.3334C16.9983 24.5101 17.0309 24.6855 17.0968 24.8494C17.1627 25.0134 17.2605 25.1626 17.3846 25.2885C17.5086 25.4143 17.6565 25.5142 17.8195 25.5824C17.9825 25.6506 18.1574 25.6857 18.3341 25.6857C18.5108 25.6857 18.6858 25.6506 18.8488 25.5824C19.0118 25.5142 19.1596 25.4143 19.2837 25.2885C19.4077 25.1626 19.5055 25.0134 19.5714 24.8494C19.6373 24.6855 19.6699 24.5101 19.6674 24.3334C19.6674 21.586 19.5197 15.2133 23.0008 10.9063V12.3803C22.9983 12.5569 23.0309 12.7324 23.0968 12.8963C23.1627 13.0603 23.2605 13.2095 23.3846 13.3353C23.5086 13.4612 23.6565 13.5611 23.8195 13.6293C23.9825 13.6975 24.1574 13.7326 24.3341 13.7326C24.5108 13.7326 24.6858 13.6975 24.8488 13.6293C25.0118 13.5611 25.1596 13.4612 25.2837 13.3353C25.4077 13.2095 25.5055 13.0603 25.5714 12.8963C25.6373 12.7324 25.6699 12.5569 25.6674 12.3803V7.66672C25.6674 7.31311 25.5269 6.97399 25.2769 6.72395C25.0268 6.47391 24.6877 6.33342 24.3341 6.33339H19.6206Z" fill="white"/>
</svg>
