<svg width="20" height="20" viewBox="0 0 20 20" fill="none" xmlns="http://www.w3.org/2000/svg">
<path d="M9.9999 2.12156C12.5631 2.12156 12.8666 2.13111 13.8792 2.17707C14.488 2.18448 15.0911 2.29574 15.6621 2.506C16.0762 2.66494 16.4522 2.90841 16.7661 3.22074C17.0799 3.53308 17.3245 3.90735 17.4842 4.31947C17.6955 4.88777 17.8073 5.48791 17.8148 6.09381C17.8605 7.10155 17.8705 7.40364 17.8705 9.9546C17.8705 12.5056 17.8609 12.8076 17.8148 13.8154C17.8073 14.4213 17.6955 15.0214 17.4842 15.5897C17.3245 16.0018 17.0799 16.3761 16.7661 16.6885C16.4522 17.0008 16.0762 17.2443 15.6621 17.4032C15.0911 17.6135 14.488 17.7247 13.8792 17.7321C12.8671 17.7776 12.5636 17.7876 9.9999 17.7876C7.43625 17.7876 7.1327 17.7781 6.12059 17.7321C5.51178 17.7247 4.90876 17.6135 4.33773 17.4032C3.92363 17.2443 3.54756 17.0008 3.23373 16.6885C2.9199 16.3761 2.67526 16.0018 2.51556 15.5897C2.30429 15.0214 2.1925 14.4213 2.18505 13.8154C2.13933 12.8076 2.12927 12.5056 2.12927 9.9546C2.12927 7.40364 2.13887 7.10155 2.18505 6.09381C2.1925 5.48791 2.30429 4.88777 2.51556 4.31947C2.67526 3.90735 2.9199 3.53308 3.23373 3.22074C3.54756 2.90841 3.92363 2.66494 4.33773 2.506C4.90876 2.29574 5.51178 2.18448 6.12059 2.17707C7.13316 2.13157 7.4367 2.12156 9.9999 2.12156ZM9.9999 0.399994C7.39419 0.399994 7.06596 0.410913 6.04196 0.457319C5.24518 0.473091 4.45686 0.623234 3.71053 0.901359C3.0703 1.14143 2.49041 1.51763 2.01133 2.00373C1.52246 2.48069 1.14413 3.05814 0.902759 3.69572C0.623299 4.43849 0.472436 5.22304 0.456588 6.01601C0.410874 7.03421 0.399902 7.36087 0.399902 9.95414C0.399902 12.5474 0.410874 12.8741 0.457502 13.8932C0.473351 14.6862 0.624214 15.4707 0.903674 16.2135C1.14477 16.851 1.52279 17.4284 2.01133 17.9055C2.49068 18.3917 3.07089 18.7679 3.71145 19.0078C4.45778 19.286 5.2461 19.4361 6.04287 19.4519C7.06687 19.4974 7.39373 19.5092 10.0008 19.5092C12.6079 19.5092 12.9348 19.4983 13.9588 19.4519C14.7555 19.4361 15.5439 19.286 16.2902 19.0078C16.9277 18.7619 17.5066 18.3863 17.99 17.9049C18.4733 17.4236 18.8503 16.8472 19.097 16.2126C19.3765 15.4698 19.5274 14.6852 19.5432 13.8923C19.5889 12.8741 19.5999 12.5474 19.5999 9.95414C19.5999 7.36087 19.5889 7.03421 19.5423 6.0151C19.5265 5.22213 19.3756 4.43758 19.0961 3.69481C18.855 3.05731 18.477 2.47987 17.9885 2.00282C17.5091 1.51661 16.9289 1.1404 16.2884 0.900449C15.542 0.622324 14.7537 0.472181 13.9569 0.456409C12.9338 0.410913 12.6056 0.399994 9.9999 0.399994Z" fill="#100F0F"/>
<path d="M9.99917 5.04807C9.02414 5.04807 8.07101 5.33581 7.2603 5.87492C6.44959 6.41403 5.81773 7.18029 5.4446 8.0768C5.07147 8.9733 4.97384 9.95979 5.16406 10.9115C5.35428 11.8632 5.8238 12.7375 6.51325 13.4236C7.2027 14.1098 8.08111 14.5771 9.03741 14.7664C9.9937 14.9557 10.9849 14.8585 11.8857 14.4872C12.7865 14.1158 13.5565 13.487 14.0982 12.6801C14.6399 11.8733 14.929 10.9247 14.929 9.95435C14.929 8.65312 14.4096 7.40519 13.4851 6.48508C12.5606 5.56498 11.3066 5.04807 9.99917 5.04807ZM9.99917 13.1391C9.36627 13.1391 8.74758 12.9523 8.22134 12.6023C7.6951 12.2524 7.28495 11.755 7.04275 11.1731C6.80055 10.5912 6.73718 9.95082 6.86065 9.33304C6.98413 8.71527 7.2889 8.1478 7.73642 7.70241C8.18395 7.25702 8.75414 6.95371 9.37488 6.83083C9.99562 6.70794 10.639 6.77101 11.2238 7.01205C11.8085 7.2531 12.3082 7.66129 12.6599 8.18501C13.0115 8.70874 13.1992 9.32447 13.1992 9.95435C13.1992 10.799 12.862 11.609 12.2619 12.2063C11.6618 12.8035 10.8479 13.1391 9.99917 13.1391Z" fill="#100F0F"/>
<path d="M15.1247 6.00073C15.7609 6.00073 16.2767 5.48742 16.2767 4.85423C16.2767 4.22104 15.7609 3.70773 15.1247 3.70773C14.4884 3.70773 13.9727 4.22104 13.9727 4.85423C13.9727 5.48742 14.4884 6.00073 15.1247 6.00073Z" fill="#100F0F"/>
</svg>
