<svg width="17" height="17" viewBox="0 0 17 17" fill="none" xmlns="http://www.w3.org/2000/svg">
<path d="M3.68081 16.1997H0.0808105V5.39968H3.68081V16.1997ZM1.88153 3.95968C0.88577 3.95968 0.0808105 3.15256 0.0808105 2.15896C0.0808105 1.16536 0.88721 0.35968 1.88153 0.35968C2.87369 0.35968 3.68081 1.1668 3.68081 2.15896C3.68081 3.15256 2.87369 3.95968 1.88153 3.95968ZM16.6408 16.1997H13.1798V10.9437C13.1798 9.69016 13.156 8.07808 11.3805 8.07808C9.57833 8.07808 9.30113 9.4432 9.30113 10.853V16.1997H5.84081V5.39176H9.16289V6.86848H9.20969C9.67193 6.01888 10.8016 5.1232 12.4864 5.1232C15.9928 5.1232 16.6408 7.36168 16.6408 10.2719V16.1997Z" fill="#100F0F"/>
</svg>
