<svg width="26" height="26" viewBox="0 0 26 26" fill="none" xmlns="http://www.w3.org/2000/svg">
<path d="M23.8334 18.33V21.58C23.8346 21.8817 23.7728 22.1804 23.6519 22.4568C23.531 22.7332 23.3538 22.9814 23.1314 23.1854C22.9091 23.3893 22.6467 23.5446 22.3608 23.6413C22.075 23.7379 21.7722 23.7738 21.4717 23.7467C18.1381 23.3844 14.9359 22.2453 12.1225 20.4208C9.50501 18.7576 7.28581 16.5384 5.62253 13.9208C3.79167 11.0946 2.65229 7.87691 2.2967 4.52834C2.26962 4.22876 2.30523 3.92683 2.40124 3.64176C2.49725 3.3567 2.65156 3.09475 2.85436 2.87259C3.05715 2.65044 3.30398 2.47294 3.57914 2.3514C3.85429 2.22987 4.15173 2.16695 4.45253 2.16667H7.70253C8.22828 2.1615 8.73797 2.34767 9.1366 2.6905C9.53524 3.03332 9.79561 3.5094 9.8692 4.03C10.0064 5.07008 10.2608 6.09129 10.6275 7.07417C10.7733 7.46192 10.8048 7.88333 10.7184 8.28846C10.632 8.69359 10.4313 9.06546 10.14 9.36L8.7642 10.7358C10.3064 13.448 12.552 15.6937 15.2642 17.2358L16.64 15.86C16.9346 15.5687 17.3064 15.368 17.7116 15.2816C18.1167 15.1952 18.5381 15.2267 18.9259 15.3725C19.9087 15.7393 20.93 15.9937 21.97 16.1308C22.4963 16.2051 22.9769 16.4701 23.3204 16.8756C23.664 17.2811 23.8465 17.7987 23.8334 18.33Z" stroke="white" stroke-width="2" stroke-linecap="round" stroke-linejoin="round"/>
</svg>
