<svg width="22" height="29" viewBox="0 0 22 29" fill="none" xmlns="http://www.w3.org/2000/svg">
<path d="M10.9375 0.97665C10.09 0.987955 9.25919 1.21454 8.52327 1.63511C7.78735 2.05569 7.17043 2.65645 6.73047 3.38095C2.59663 4.11536 0.103418 5.78684 0.00976562 7.87899C0.00405928 7.91912 0.00079804 7.95956 0 8.00009V16.0001V24.0001C0 27.2477 5.667 29.0001 11 29.0001C16.333 29.0001 22 27.2477 22 24.0001V16.0001V15.9591V8.00009C22.0002 7.95174 21.997 7.90343 21.9902 7.85556C21.879 5.77396 19.3874 4.11044 15.2676 3.37899C14.8165 2.63706 14.1801 2.02537 13.4208 1.60414C12.6616 1.1829 11.8057 0.966645 10.9375 0.97665ZM11.0078 2.99423C11.4874 2.99582 11.9597 3.11238 12.385 3.33414C12.8103 3.55591 13.1762 3.87641 13.452 4.26877C13.7279 4.66113 13.9056 5.11391 13.9704 5.58915C14.0352 6.06439 13.985 6.54822 13.8242 7.00009H8.17578C8.01452 6.54698 7.96457 6.06174 8.03013 5.58528C8.09569 5.10882 8.27484 4.65511 8.55248 4.26239C8.83012 3.86967 9.19811 3.54946 9.62543 3.32876C10.0527 3.10805 10.5269 2.99332 11.0078 2.99423ZM6.02148 5.56845C5.98247 6.0475 6.01273 6.52967 6.11133 7.00009H5C4.73478 7.00009 4.48043 7.10544 4.29289 7.29298C4.10536 7.48052 4 7.73487 4 8.00009C4 8.2653 4.10536 8.51966 4.29289 8.70719C4.48043 8.89473 4.73478 9.00009 5 9.00009H17C17.2652 9.00009 17.5196 8.89473 17.7071 8.70719C17.8946 8.51966 18 8.2653 18 8.00009C18 7.73487 17.8946 7.48052 17.7071 7.29298C17.5196 7.10544 17.2652 7.00009 17 7.00009H15.8906C15.9897 6.5304 16.0206 6.0489 15.9824 5.5704C18.5986 6.20513 20 7.24345 20 8.00009C20 9.22319 16.4941 11.0001 11 11.0001C5.5059 11.0001 2 9.22319 2 8.00009C2 7.24308 3.40282 6.20302 6.02148 5.56845ZM2 10.9591C4.12163 12.2972 7.62552 13.0001 11 13.0001C14.3745 13.0001 17.8784 12.2972 20 10.9591V16.0001C20 17.2232 16.4941 19.0001 11 19.0001C5.5059 19.0001 2 17.2232 2 16.0001C2.00028 15.9864 2.00028 15.9727 2 15.9591V10.9591ZM2 18.9591C4.12163 20.2972 7.62552 21.0001 11 21.0001C14.3745 21.0001 17.8784 20.2972 20 18.9591V24.0001C20 25.2232 16.4941 27.0001 11 27.0001C5.5059 27.0001 2 25.2232 2 24.0001V18.9591Z" fill="white"/>
</svg>
