<svg width="31" height="31" viewBox="0 0 31 31" fill="none" xmlns="http://www.w3.org/2000/svg">
<path fill-rule="evenodd" clip-rule="evenodd" d="M8.14489 3.91663C7.94607 3.91663 7.75453 3.99151 7.60844 4.12637L3.60995 7.81728C3.44455 7.96996 3.35552 8.18193 3.35547 8.39844V8.39859V8.39865V10.859C3.35547 12.0458 3.82418 13.1172 4.58586 13.9147V26.853C4.58586 27.2898 4.93996 27.6439 5.37677 27.6439H25.6768C26.1136 27.6439 26.4677 27.2898 26.4677 26.853V13.9153C27.2297 13.1177 27.6986 12.046 27.6986 10.859V8.39844H27.698C27.6979 8.18193 27.6089 7.96996 27.4435 7.81728L23.445 4.12637C23.2989 3.99151 23.1074 3.91663 22.9085 3.91663H8.14489ZM26.1168 9.18935H20.1113V10.859C20.1113 12.4405 21.435 13.759 23.114 13.759C24.7931 13.759 26.1168 12.4405 26.1168 10.859V9.18935ZM18.5287 9.18935H12.5246V10.859C12.5246 10.8819 12.5244 10.9046 12.524 10.9274C12.5615 12.4784 13.8711 13.7592 15.526 13.7592C17.205 13.7592 18.5287 12.4406 18.5287 10.8592V9.18935ZM10.9414 9.18935H4.93729V10.859C4.93729 12.4405 6.26099 13.759 7.94002 13.759C9.59481 13.759 10.9045 12.4783 10.9419 10.9274C10.9416 10.9047 10.9414 10.8819 10.9414 10.8592V9.18935ZM6.16928 7.60754L8.45413 5.49844H22.5993L24.8841 7.60754H6.16928ZM7.94002 15.3409C9.5076 15.3409 10.9044 14.5671 11.7329 13.3785C12.5614 14.5671 13.9583 15.341 15.526 15.341C17.0943 15.341 18.4917 14.5665 19.32 13.377C20.1484 14.5664 21.5458 15.3409 23.114 15.3409C23.7404 15.3409 24.3394 15.2173 24.8859 14.9932V26.0621H14.7804V18.2407C14.7804 17.8039 14.4263 17.4498 13.9895 17.4498H9.06825C8.63145 17.4498 8.27734 17.8039 8.27734 18.2407V26.0621H6.16768V14.993C6.71426 15.2173 7.3135 15.3409 7.94002 15.3409ZM9.85916 26.0621H13.1986V19.0316H9.85916V26.0621ZM16.8887 18.2408C16.8887 17.804 17.2428 17.4499 17.6796 17.4499H21.9857C22.4225 17.4499 22.7766 17.804 22.7766 18.2408V22.5469C22.7766 22.9837 22.4225 23.3378 21.9857 23.3378H17.6796C17.2428 23.3378 16.8887 22.9837 16.8887 22.5469V18.2408ZM18.4705 19.0318V21.756H21.1948V19.0318H18.4705Z" fill="white"/>
</svg>
