<svg width="22" height="21" viewBox="0 0 22 21" fill="none" xmlns="http://www.w3.org/2000/svg">
<path d="M7.28011 11.3493L16.1296 19.1358C16.2319 19.2263 16.356 19.2887 16.4896 19.3168C16.6233 19.3449 16.762 19.3377 16.8921 19.296C17.0221 19.2543 17.1391 19.1795 17.2315 19.0789C17.3239 18.9783 17.3886 18.8554 17.4192 18.7223L21.1204 2.55888C21.1515 2.41968 21.1441 2.27466 21.0992 2.13931C21.0542 2.00396 20.9734 1.88336 20.8652 1.79038C20.7571 1.6974 20.6257 1.63553 20.4851 1.61138C20.3446 1.58723 20.2001 1.6017 20.0671 1.65325L1.89558 8.78997C1.16714 9.07544 1.26558 10.1386 2.03339 10.2961L7.28011 11.3493Z" stroke="#100F0F" stroke-width="1.4" stroke-linecap="round" stroke-linejoin="round"/>
<path d="M7.28052 11.3497L20.6779 1.67328" stroke="#100F0F" stroke-width="1.4" stroke-linecap="round" stroke-linejoin="round"/>
<path d="M11.7004 15.2377L8.62911 18.309C8.51954 18.4202 8.37937 18.4964 8.22641 18.5278C8.07344 18.5592 7.9146 18.5445 7.77005 18.4854C7.62551 18.4263 7.50179 18.3256 7.41462 18.196C7.32746 18.0664 7.28078 17.9139 7.28052 17.7577V11.3495" stroke="#100F0F" stroke-width="1.4" stroke-linecap="round" stroke-linejoin="round"/>
</svg>
