<svg width="29" height="29" viewBox="0 0 29 29" fill="none" xmlns="http://www.w3.org/2000/svg">
<path d="M23.9715 12.5704C24.0983 13.1939 24.166 13.8391 24.166 14.5001C24.166 19.83 19.8293 24.1667 14.4993 24.1667C9.16939 24.1667 4.83268 19.83 4.83268 14.5001C4.83268 9.17012 9.16939 4.83341 14.4993 4.83341C16.4726 4.83341 18.308 5.43033 19.8402 6.45016L21.5693 4.72104C19.578 3.27829 17.1396 2.41675 14.4993 2.41675C7.8366 2.41675 2.41602 7.83733 2.41602 14.5001C2.41602 21.1628 7.8366 26.5834 14.4993 26.5834C21.1621 26.5834 26.5827 21.1628 26.5827 14.5001C26.5827 13.1395 26.3458 11.8345 25.929 10.6129L23.9715 12.5704Z" fill="white"/>
<path fill-rule="evenodd" clip-rule="evenodd" d="M13.2913 16.4163L25.7285 3.979L27.4374 5.68785L13.2913 19.8339L7.60352 14.1462L9.31236 12.4373L13.2913 16.4163Z" fill="white"/>
</svg>
