<svg width="32" height="32" viewBox="0 0 32 32" fill="none" xmlns="http://www.w3.org/2000/svg">
<path d="M17.5 8.5H16V3.5L18.75 4L17.5 8.5Z" fill="white"/>
<path d="M16 3V5C22.075 5 27 9.925 27 16C27 22.075 22.075 27 16 27C9.925 27 5 22.075 5 16C5 12.827 6.345 9.97 8.494 7.9625L6.98 6.6435C4.5275 9.008 3 12.3245 3 16C3 23.1795 8.8205 29 16 29C23.1795 29 29 23.1795 29 16C29 8.8205 23.1795 3 16 3Z" fill="white"/>
<path d="M10.4902 9.78247L9.7832 10.4895L15.2937 17.207L17.2077 15.293L10.4902 9.78247Z" fill="white"/>
<path d="M16 18C17.1046 18 18 17.1046 18 16C18 14.8954 17.1046 14 16 14C14.8954 14 14 14.8954 14 16C14 17.1046 14.8954 18 16 18Z" fill="white"/>
</svg>
